<svg width="21" height="9" viewBox="0 0 21 9" fill="none" xmlns="http://www.w3.org/2000/svg">
<path d="M15.5576 0C18.0502 0 20.0744 1.99071 20.0744 4.5C20.0744 6.97584 18.0502 8.99164 15.5576 8.99164C14.3448 8.99164 13.2156 8.52323 12.3625 7.67844L10.0372 5.62082L7.67007 7.72026C6.85874 8.5316 5.72119 9 4.51673 9C2.02416 9 0 6.97584 0 4.5C0 2.02416 2.02416 0 4.51673 0C5.72119 0 6.85874 0.468401 7.7119 1.32156L10.0372 3.37918L12.4043 1.27974C13.2156 0.468401 14.3532 0 15.5576 0ZM6.52416 6.49907L8.78253 4.5L6.55762 2.53439C5.98885 1.96561 5.27788 1.67286 4.51673 1.67286C2.9526 1.67286 1.67286 2.93587 1.67286 4.5C1.67286 6.06413 2.9526 7.32714 4.51673 7.32714C5.27788 7.32714 5.98885 7.03439 6.52416 6.49907ZM13.5502 2.50093L11.2918 4.5L13.5167 6.46561C14.0855 7.03439 14.8048 7.32714 15.5576 7.32714C17.1217 7.32714 18.4015 6.06413 18.4015 4.5C18.4015 2.93587 17.1217 1.67286 15.5576 1.67286C14.7965 1.67286 14.0855 1.96561 13.5502 2.50093Z" fill="#919AA3"/>
</svg>
